<svg width="80" height="81" viewBox="0 0 80 81" fill="none" xmlns="http://www.w3.org/2000/svg">
<g clip-path="url(#clip0_21_374)">
<path d="M40 80.2636C62.0914 80.2636 80 62.3917 80 40.3454C80 18.2992 62.0914 0.427246 40 0.427246C17.9086 0.427246 0 18.2992 0 40.3454C0 62.3917 17.9086 80.2636 40 80.2636Z" fill="#381206"/>
<path d="M50.056 41.9083H42.9185V68.0034H32.1045V41.9083H26.9614V32.7375H32.1045V26.8029C32.1045 22.559 34.1246 15.9136 43.0147 15.9136L51.025 15.947V24.8489H45.213C44.2597 24.8489 42.9192 25.3242 42.9192 27.3487V32.746H51.0008L50.056 41.9083Z" fill="#EADBC1"/>
</g>
<defs>
<clipPath id="clip0_21_374">
<rect width="80" height="79.8364" fill="white" transform="translate(0 0.427246)"/>
</clipPath>
</defs>
</svg>
