<svg width="80" height="81" viewBox="0 0 80 81" fill="none" xmlns="http://www.w3.org/2000/svg">
<g clip-path="url(#clip0_21_378)">
<path d="M51.9218 21.6675H28.0782C24.2724 21.6675 21.1761 24.7575 21.1761 28.5555V52.3504C21.1761 56.1484 24.2724 59.2393 28.0782 59.2393H51.9218C55.7276 59.2393 58.8248 56.1493 58.8248 52.3504V28.5555C58.8248 24.7575 55.7285 21.6675 51.9218 21.6675ZM40 52.8218C33.1665 52.8218 27.6067 47.2733 27.6067 40.4529C27.6067 33.6334 33.1665 28.085 40 28.085C46.8344 28.085 52.3942 33.6334 52.3942 40.4529C52.3942 47.2724 46.8335 52.8218 40 52.8218ZM52.7926 30.6422C51.1749 30.6422 49.8594 29.3293 49.8594 27.7158C49.8594 26.1023 51.1749 24.7895 52.7926 24.7895C54.4094 24.7895 55.725 26.1023 55.725 27.7158C55.725 29.3293 54.4094 30.6422 52.7926 30.6422Z" fill="#381206"/>
<path d="M40 33.3115C36.0552 33.3115 32.843 36.5154 32.843 40.4521C32.843 44.3907 36.0552 47.5954 40 47.5954C43.9466 47.5954 47.1561 44.3907 47.1561 40.4521C47.1561 36.5163 43.9457 33.3115 40 33.3115Z" fill="#381206"/>
<path d="M40 0.427246C17.9095 0.427246 0 18.3001 0 40.3454C0 62.3908 17.9095 80.2636 40 80.2636C62.0905 80.2636 80 62.3908 80 40.3454C80 18.3001 62.0905 0.427246 40 0.427246ZM64.0611 52.3505C64.0611 59.0313 58.6163 64.465 51.9218 64.465H28.0782C21.3846 64.465 15.9389 59.0313 15.9389 52.3505V28.5556C15.9389 21.8758 21.3846 16.4411 28.0782 16.4411H51.9218C58.6163 16.4411 64.0611 21.8758 64.0611 28.5556V52.3505Z" fill="#381206"/>
</g>
<defs>
<clipPath id="clip0_21_378">
<rect width="80" height="79.8364" fill="white" transform="translate(0 0.427246)"/>
</clipPath>
</defs>
</svg>
