<svg width="44" height="60" viewBox="0 0 44 60" fill="none" xmlns="http://www.w3.org/2000/svg">
<path d="M38.0706 8.15707C34.2468 3.26718 29.1626 0.574434 23.7553 0.574707C22.8692 0.574707 22.1512 1.49317 22.1512 2.62607C22.1512 3.75896 22.8694 4.67742 23.7553 4.67742C28.3058 4.67715 32.5841 6.94322 35.8019 11.0582C39.02 15.1733 40.792 20.6446 40.7918 26.4642C40.7918 27.5971 41.5098 28.5156 42.3959 28.5156C43.2818 28.5156 44 27.5971 44 26.4645C44.0002 19.5487 41.8945 13.047 38.0706 8.15707Z" fill="#381206"/>
<path d="M31.4719 26.4647C31.4719 27.5976 32.1901 28.5161 33.0762 28.5158C33.9621 28.5158 34.6801 27.5973 34.6801 26.4644C34.6797 18.7623 29.7788 12.4952 23.7555 12.4941C23.7553 12.4941 23.7555 12.4941 23.7553 12.4941C22.8694 12.4941 22.1514 13.4123 22.1512 14.5452C22.1512 15.6781 22.8692 16.5966 23.7551 16.5969C28.0098 16.5977 31.4715 21.0242 31.4719 26.4647Z" fill="#381206"/>
<path d="M27.9224 36.9236C25.4773 36.7617 24.2316 39.0871 23.6343 40.2042C23.134 41.1393 23.3214 42.4158 24.0526 43.0555C24.7839 43.6953 25.7821 43.4557 26.2823 42.5205C26.9881 41.2008 27.3079 40.9932 27.7416 41.0195C29.1299 41.2282 34.5978 46.3522 35.1453 47.9545C35.2826 48.4263 35.2775 48.8888 35.1301 49.4514C34.5561 51.6302 33.6058 53.1614 32.3816 53.8791C31.2185 54.5609 29.7925 54.4991 28.2588 53.701C22.5317 50.7159 17.5282 46.55 13.3874 41.3187C13.3857 41.3165 13.384 41.3146 13.3825 41.3124C9.3004 36.0224 6.04876 29.632 3.71832 22.3193C3.094 20.3563 3.04566 18.5325 3.57887 17.0454C4.14009 15.4798 5.3374 14.2646 7.03967 13.5313C7.48112 13.342 7.84216 13.336 8.20768 13.51C9.46508 14.2126 13.4717 21.2048 13.6334 22.9602C13.6565 23.5356 13.4929 23.9443 12.4618 24.8452C11.7303 25.4842 11.5423 26.7607 12.0421 27.6961C12.5418 28.6315 13.5397 28.8716 14.2714 28.2327C15.1453 27.4696 16.9633 25.881 16.8371 22.7435C16.6981 19.4663 11.713 10.7874 9.33098 9.66737C8.27163 9.16246 7.15731 9.15371 6.01775 9.64276C3.45375 10.7469 1.60197 12.7157 0.662603 15.336C-0.24853 17.878 -0.219656 20.8273 0.747086 23.8666C3.24115 31.6924 6.73062 38.5398 11.1184 44.2194C11.1291 44.2333 11.14 44.247 11.1511 44.2604C15.5891 49.8611 20.9374 54.3153 27.0489 57.5009C28.2727 58.1374 29.4779 58.4561 30.6305 58.4561C31.7158 58.4561 32.7548 58.1738 33.7185 57.6087C35.7677 56.4077 37.307 54.0399 38.1711 50.7588C38.5527 49.3043 38.5465 47.8798 38.1546 46.5314C37.2758 43.477 30.4891 37.102 27.9224 36.9236Z" fill="#381206"/>
</svg>
