<svg width="44" height="59" viewBox="0 0 44 59" fill="none" xmlns="http://www.w3.org/2000/svg">
<path d="M33.9889 7.58237C30.5751 2.69248 26.036 -0.000273494 21.2084 2.08345e-08C20.4173 2.08345e-08 19.7763 0.918461 19.7763 2.05136C19.7763 3.18425 20.4175 4.10272 21.2084 4.10272C25.2711 4.10244 29.0907 6.36851 31.9635 10.4835C34.8365 14.5986 36.4186 20.0699 36.4184 25.8895C36.4184 27.0224 37.0594 27.9409 37.8505 27.9409C38.6414 27.9409 39.2826 27.0224 39.2826 25.8898C39.2828 18.974 37.4029 12.4723 33.9889 7.58237Z" fill="white"/>
<path d="M28.0977 25.8899C28.0977 27.0228 28.7389 27.9412 29.53 27.941C30.321 27.941 30.962 27.0225 30.962 25.8896C30.9616 18.1874 26.5862 11.9204 21.2086 11.9193C21.2084 11.9193 21.2086 11.9193 21.2084 11.9193C20.4175 11.9193 19.7765 12.8375 19.7763 13.9704C19.7763 15.1033 20.4173 16.0218 21.2082 16.022C25.0068 16.0228 28.0973 20.4494 28.0977 25.8899Z" fill="white"/>
<path d="M24.9287 36.349C22.7458 36.1871 21.6337 38.5125 21.1004 39.6296C20.6537 40.5647 20.821 41.8412 21.4739 42.481C22.1267 43.1207 23.0179 42.8811 23.4645 41.946C24.0947 40.6263 24.3801 40.4187 24.7674 40.4449C26.0068 40.6536 30.8885 45.7776 31.3773 47.3799C31.4999 47.8517 31.4953 48.3142 31.3638 48.8768C30.8512 51.0556 30.0029 52.5868 28.9099 53.3045C27.8715 53.9863 26.5984 53.9245 25.2291 53.1264C20.116 50.1413 15.6489 45.9754 11.9521 40.7441C11.9506 40.742 11.9491 40.74 11.9478 40.7379C8.30328 35.4478 5.40026 29.0574 3.31967 21.7447C2.76228 19.7817 2.71913 17.9579 3.19517 16.4708C3.69622 14.9052 4.76516 13.69 6.28493 12.9567C6.67905 12.7675 7.00138 12.7614 7.32771 12.9354C8.45031 13.638 12.0274 20.6302 12.1717 22.3856C12.1924 22.9611 12.0463 23.3697 11.1257 24.2706C10.4727 24.9096 10.3048 26.1861 10.7511 27.1215C11.1971 28.0569 12.0881 28.2971 12.7413 27.6581C13.5216 26.895 15.1446 25.3064 15.032 22.169C14.9079 18.8917 10.4572 10.2128 8.33058 9.09279C7.38481 8.58788 6.38996 8.57913 5.37257 9.06817C3.08346 10.1723 1.43022 12.1411 0.591563 14.7614C-0.221884 17.3034 -0.196106 20.2527 0.666989 23.292C2.89366 31.1178 6.00901 37.9652 9.92635 43.6448C9.9359 43.6587 9.94564 43.6724 9.95557 43.6858C13.9178 49.2865 18.6927 53.7407 24.1489 56.9263C25.2415 57.5628 26.3175 57.8815 27.3465 57.8815C28.3154 57.8815 29.2431 57.5992 30.1035 57.0341C31.933 55.8331 33.3072 53.4653 34.0787 50.1842C34.4193 48.7297 34.4138 47.3052 34.064 45.9568C33.2794 42.9024 27.2203 36.5274 24.9287 36.349Z" fill="white"/>
</svg>
