<svg width="44" height="59" viewBox="0 0 44 59" fill="none" xmlns="http://www.w3.org/2000/svg">
<path d="M21.9885 0.750488C9.86722 0.750488 0 11.1619 0 23.9516C0 25.4077 0.126503 26.876 0.391009 28.3079C0.402509 28.3928 0.44851 28.6476 0.540512 29.0845C0.87402 30.6498 1.36853 32.1909 2.01255 33.6592C4.3816 39.5444 9.59122 48.5845 21.0225 58.2678C21.31 58.5105 21.655 58.6319 22 58.6319C22.345 58.6319 22.69 58.5105 22.9775 58.2678C34.3973 48.5845 39.6184 39.5444 41.9875 33.6592C42.6315 32.1909 43.126 30.6619 43.4595 29.0845C43.5515 28.6476 43.5975 28.3928 43.609 28.3079C43.862 26.876 44 25.4077 44 23.9516C43.977 11.1619 34.1098 0.750488 21.9885 0.750488ZM40.5269 27.7375C40.5269 27.7618 40.5154 27.7861 40.5154 27.8103C40.5039 27.871 40.4694 28.053 40.4119 28.3321C40.4119 28.3443 40.4119 28.3443 40.4119 28.3564C40.1244 29.7155 39.6989 31.0381 39.1354 32.3122C39.1239 32.3244 39.1239 32.3486 39.1124 32.3608C36.9618 37.7363 32.2467 45.9392 21.9885 54.8823C11.7303 45.9392 7.01516 37.7363 4.86461 32.3608C4.85311 32.3486 4.85311 32.3244 4.84161 32.3122C4.2896 31.0502 3.86409 29.7155 3.56508 28.3564C3.56508 28.3443 3.56508 28.3443 3.56508 28.3321C3.49608 28.053 3.47308 27.871 3.46158 27.8103C3.46158 27.7861 3.45008 27.7618 3.45008 27.7254C3.22007 26.4756 3.10507 25.2136 3.10507 23.9394C3.10507 12.9578 11.5808 4.01466 21.9885 4.01466C32.3962 4.01466 40.8719 12.9578 40.8719 23.9394C40.8719 25.2257 40.7569 26.4998 40.5269 27.7375Z" fill="#381206"/>
<path d="M21.9885 9.4751C14.2948 9.4751 8.02716 16.0884 8.02716 24.2063C8.02716 32.3243 14.2948 38.9376 21.9885 38.9376C29.6822 38.9376 35.9498 32.3243 35.9498 24.2063C35.9498 16.0884 29.6822 9.4751 21.9885 9.4751ZM21.9885 35.6613C15.9968 35.6613 11.1322 30.5163 11.1322 24.2063C11.1322 17.8964 16.0083 12.7514 21.9885 12.7514C27.9686 12.7514 32.8447 17.8964 32.8447 24.2063C32.8447 30.5163 27.9801 35.6613 21.9885 35.6613Z" fill="#381206"/>
</svg>
