<svg width="80" height="80" viewBox="0 0 80 80" fill="none" xmlns="http://www.w3.org/2000/svg">
<path d="M40 79.8364C62.0914 79.8364 80 61.9644 80 39.9182C80 17.872 62.0914 0 40 0C17.9086 0 0 17.872 0 39.9182C0 61.9644 17.9086 79.8364 40 79.8364Z" fill="#381206"/>
<path d="M63.6027 25.4744C61.8886 26.233 60.0447 26.746 58.1109 26.9751C60.0853 25.7946 61.6005 23.9267 62.3157 21.6973C60.4682 22.791 58.4211 23.5845 56.2442 24.0121C54.5001 22.1585 52.0152 21 49.2635 21C43.9842 21 39.7024 25.273 39.7024 30.5416C39.7024 31.2894 39.7873 32.0174 39.9513 32.7162C32.0052 32.3184 24.9596 28.52 20.2436 22.7455C19.4208 24.1544 18.9487 25.7946 18.9487 27.543C18.9487 30.8525 20.6379 33.7743 23.202 35.4849C21.6355 35.4358 20.1602 35.0067 18.8717 34.2902C18.871 34.3307 18.871 34.3713 18.871 34.4111C18.871 39.0343 22.1681 42.8903 26.5412 43.7663C25.7397 43.9855 24.8933 44.1014 24.0227 44.1014C23.4052 44.1014 22.807 44.0424 22.2237 43.9314C23.4402 47.7212 26.9704 50.48 31.1552 50.5576C27.8824 53.1172 23.7603 54.6421 19.2796 54.6421C18.5095 54.6421 17.7466 54.5972 17 54.5083C21.229 57.2166 26.2559 58.7956 31.6551 58.7956C49.2414 58.7956 58.8589 44.2566 58.8589 31.6467C58.8589 31.2332 58.8496 30.8212 58.8311 30.4128C60.7007 29.0679 62.3214 27.3879 63.6027 25.4744Z" fill="#EADBC1"/>
</svg>
